<svg width="20" height="20" viewBox="0 0 20 20" fill="none" xmlns="http://www.w3.org/2000/svg">
<g clip-path="url(#clip0_2201_2)">
<rect x="-2" y="5" width="10" height="1" fill="#BDAE93"/>
<rect x="-2" y="7" width="10" height="1" fill="#BDAE93"/>
<rect x="7" y="5" width="1" height="7" fill="#BDAE93"/>
<rect x="16" y="5" width="6" height="1" fill="#BDAE93"/>
<rect x="16" y="7" width="6" height="1" fill="#BDAE93"/>
<rect x="16" y="5" width="1" height="8" fill="#BDAE93"/>
<rect x="13" y="5" width="1" height="4" fill="#BDAE93"/>
<rect x="10" y="5" width="4" height="1" fill="#BDAE93"/>
<rect x="10" y="5" width="1" height="5" fill="#BDAE93"/>
<rect x="11" y="9" width="2" height="1" fill="#BDAE93"/>
<rect x="10" y="7" width="4" height="1" fill="#BDAE93"/>
<rect x="8" y="4" width="2" height="1" fill="#BDAE93"/>
<rect x="14" y="4" width="2" height="1" fill="#BDAE93"/>
<rect x="6" y="10" width="1" height="1" fill="#BDAE93"/>
<rect x="3" y="9" width="3" height="1" fill="#BDAE93"/>
<rect x="2" y="10" width="1" height="3" fill="#BDAE93"/>
<rect x="4" y="11" width="1" height="1" fill="#BDAE93"/>
<rect x="4" y="14" width="11" height="1" fill="#BDAE93"/>
<rect x="15" y="13" width="1" height="1" fill="#BDAE93"/>
<rect x="3" y="13" width="1" height="1" fill="#BDAE93"/>
</g>
<defs>
<clipPath id="clip0_2201_2">
<rect width="20" height="20" fill="white"/>
</clipPath>
</defs>
</svg>
